<?xml version="1.0" ?>
<!DOCTYPE svg  PUBLIC '-//W3C//DTD SVG 1.1//EN'  'http://www.w3.org/Graphics/SVG/1.1/DTD/svg11.dtd'>
<!-- Uploaded to: SVG Repo, www.svgrepo.com, Generator: SVG Repo Mixer Tools -->
<svg width="800px" height="800px" viewBox="0 0 32 32" enable-background="new 0 0 32 32" version="1.1" xml:space="preserve" xmlns="http://www.w3.org/2000/svg" xmlns:xlink="http://www.w3.org/1999/xlink">
<g id="Home"/>
<g id="Print"/>
<g id="Mail"/>
<g id="Camera"/>
<g id="Video"/>
<g id="Film"/>
<g id="Message"/>
<g id="Telephone"/>
<g id="User"/>
<g id="File"/>
<g id="Folder"/>
<g id="Map"/>
<g id="Download"/>
<g id="Upload"/>
<g id="Video_Recorder"/>
<g id="Schedule"/>
<g id="Cart"/>
<g id="Setting"/>
<g id="Search"/>
<g id="Pencils"/>
<g id="Group"/>
<g id="Record"/>
<g id="Headphone"/>
<g id="Music_Player"/>
<g id="Sound_On"/>
<g id="Sound_Off"/>
<g id="Lock"/>
<g id="Lock_open"/>
<g id="Love"/>
<g id="Favorite"/>
<g id="Film_1_"/>
<g id="Music"/>
<g id="Puzzle"/>
<g id="Turn_Off"/>
<g id="Book"/>
<g id="Save"/>
<g id="Reload"/>
<g id="Trash"/>
<g id="Tag"/>
<g id="Link"/>
<g id="Like"/>
<g id="Bad"/>
<g id="Gallery"/>
<g id="Add"/>
<g id="Close"/>
<g id="Forward"/>
<g id="Back"/>
<g id="Buy">
<path d="M28,9h-3V8c0-3.9-3.1-7-7-7h-2h-2c-3.9,0-7,3.1-7,7v1H4c-1.7,0-3,1.3-3,3v16c0,1.6,1.3,3,3,3h12h12   c1.7,0,3-1.4,3-3V12C31,10.3,29.7,9,28,9z M23,9h-7H9V8c0-2.8,2.2-5,5-5h2h2c2.8,0,5,2.2,5,5V9z" fill="#FFC10A"/>
<path d="M18,1h-2h-2c-3.9,0-7,3.1-7,7v8c0,0.5,0.5,1,1,1s1-0.5,1-1V8c0-2.8,2.2-5,5-5h2h2c2.8,0,5,2.2,5,5v8   c0,0.5,0.5,1,1,1s1-0.5,1-1V8C25,4.1,21.9,1,18,1z" fill="#673AB7"/>
</g>
<g id="Mac"/>
<g id="Laptop"/>
</svg>