<?xml version="1.0" encoding="iso-8859-1"?>
<!-- Uploaded to: SVG Repo, www.svgrepo.com, Generator: SVG Repo Mixer Tools -->
<svg version="1.1" id="Layer_1" xmlns="http://www.w3.org/2000/svg" xmlns:xlink="http://www.w3.org/1999/xlink" 
	 viewBox="0 0 511.984 511.984" xml:space="preserve">
<rect x="10.936" y="52.542" style="fill:#A0D468;" width="469" height="82.67"/>
<g>
	<path style="fill:#FC6E51;" d="M479.938,42.654H42.654C19.092,42.654,0,61.747,0,85.325v61.326h21.327v-24.39
		c6.281,3.641,13.562,5.719,21.327,5.719c12.562,0,23.844-5.422,31.655-14.047H42.654v-7.281c-11.765,0-21.327-9.578-21.327-21.327
		c0-11.766,9.562-21.343,21.327-21.343h437.284c5.891,0,10.672-4.765,10.672-10.656S485.829,42.654,479.938,42.654z"/>
	<path style="fill:#FC6E51;" d="M469.313,106.652H21.327C9.546,106.652,0,116.199,0,127.98v320.006
		c0,11.781,9.546,21.344,21.327,21.344h447.986c11.781,0,21.328-9.562,21.328-21.344V127.98
		C490.641,116.199,481.095,106.652,469.313,106.652z"/>
</g>
<path style="fill:#E9573F;" d="M501.313,213.321H362.645c0,0-42.687,51.108-42.687,74.67s42.687,74.653,42.687,74.653h138.668
	c5.89,0,10.671-4.78,10.671-10.655V223.993C511.984,218.102,507.203,213.321,501.313,213.321z"/>
<path style="fill:#FFCE54;" d="M405.3,255.992c-17.671,0-31.999,14.328-31.999,31.999c0,17.655,14.328,31.999,31.999,31.999
	c17.688,0,32.016-14.344,32.016-31.999C437.315,270.32,422.987,255.992,405.3,255.992z"/>
<path style="fill:#8CC153;" d="M469.282,85.325c0-5.875-4.75-10.641-10.609-10.672l0,0H42.654c-5.891,0-10.655,4.781-10.655,10.672
	s4.765,10.656,10.655,10.656h426.675h-10.656C464.532,95.95,469.282,91.184,469.282,85.325z"/>
</svg>